<svg xmlns="http://www.w3.org/2000/svg" xmlns:xlink="http://www.w3.org/1999/xlink" width="541.364" height="77.986" viewBox="0 0 541.364 77.986">
  <defs>
    <clipPath id="clip-path">
      <path id="Path_1" data-name="Path 1" d="M169.476,10.853a9.062,9.062,0,0,0-7.584,4.38,8.92,8.92,0,0,0-1.053,2.609l32.326,18.706,11.647,6.732a8.05,8.05,0,0,0,2.643-10.64,8.12,8.12,0,0,0-3.016-3.06l-30.3-17.51a9.03,9.03,0,0,0-4.508-1.217Z" fill="none"/>
    </clipPath>
    <radialGradient id="radial-gradient" cx="0.5" cy="0.5" r="0.628" gradientUnits="objectBoundingBox">
      <stop offset="0" stop-color="#26a9e0"/>
      <stop offset="1" stop-color="#2b388f"/>
    </radialGradient>
    <clipPath id="clip-path-3">
      <rect id="Rectangle_3" data-name="Rectangle 3" width="541.364" height="77.986" transform="translate(0 0)" fill="none"/>
    </clipPath>
    <clipPath id="clip-path-4">
      <path id="Path_4" data-name="Path 4" d="M172.272,48.6V48.53L160.8,55.114a8.927,8.927,0,0,0,1.077,2.724,9.055,9.055,0,0,0,7.579,4.382h.158a9.036,9.036,0,0,0,4.5-1.212l30.318-17.495c.125-.069.251-.15.375-.233l-11.647-6.732Z" fill="none"/>
    </clipPath>
    <radialGradient id="radial-gradient-3" r="0.702" xlink:href="#radial-gradient"/>
    <clipPath id="clip-path-5">
      <path id="Path_5" data-name="Path 5" d="M193.165,36.548l-3.981-2.306-.013-.005ZM160.609,19.874l-.009,30.17,11.674-6.451,0-19.112,16.894,9.756-28.332-16.4a9.342,9.342,0,0,0-.23,2.032" fill="none"/>
    </clipPath>
    <radialGradient id="radial-gradient-4" cx="0.992" cy="0.548" r="0.004" xlink:href="#radial-gradient"/>
    <radialGradient id="radial-gradient-5" r="0.503" xlink:href="#radial-gradient"/>
  </defs>
  <g id="Group_15" data-name="Group 15" transform="translate(0 0)">
    <g id="Group_2" data-name="Group 2">
      <g id="Group_1" data-name="Group 1" clip-path="url(#clip-path)">
        <rect id="Rectangle_1" data-name="Rectangle 1" width="47.623" height="32.427" transform="translate(160.839 10.853)" fill="url(#radial-gradient)"/>
      </g>
    </g>
    <g id="Group_4" data-name="Group 4">
      <g id="Group_3" data-name="Group 3" clip-path="url(#clip-path)">
        <rect id="Rectangle_2" data-name="Rectangle 2" width="47.623" height="32.427" transform="translate(160.839 10.853)" fill="url(#radial-gradient)"/>
      </g>
    </g>
    <g id="Group_6" data-name="Group 6">
      <g id="Group_5" data-name="Group 5" clip-path="url(#clip-path-3)">
        <path id="Path_3" data-name="Path 3" d="M172.271,48.6V48.53L160.8,55.115a8.921,8.921,0,0,0,1.077,2.723,9.055,9.055,0,0,0,7.578,4.382h.158a9.039,9.039,0,0,0,4.5-1.211l30.319-17.495c.123-.07.25-.15.375-.233l-11.649-6.732Z" fill="#6d89c6"/>
      </g>
    </g>
    <g id="Group_8" data-name="Group 8">
      <g id="Group_7" data-name="Group 7" clip-path="url(#clip-path-4)">
        <rect id="Rectangle_4" data-name="Rectangle 4" width="44.01" height="25.672" transform="translate(160.802 36.548)" fill="url(#radial-gradient-3)"/>
      </g>
    </g>
    <g id="Group_10" data-name="Group 10">
      <g id="Group_9" data-name="Group 9" clip-path="url(#clip-path-5)">
        <rect id="Rectangle_5" data-name="Rectangle 5" width="32.565" height="32.202" transform="translate(160.6 17.842)" fill="url(#radial-gradient-4)"/>
      </g>
    </g>
    <g id="Group_12" data-name="Group 12">
      <g id="Group_11" data-name="Group 11" clip-path="url(#clip-path-5)">
        <rect id="Rectangle_6" data-name="Rectangle 6" width="32.565" height="32.202" transform="translate(160.6 17.842)" fill="url(#radial-gradient-5)"/>
      </g>
    </g>
    <g id="Group_14" data-name="Group 14">
      <g id="Group_13" data-name="Group 13" clip-path="url(#clip-path-3)">
        <path id="Path_7" data-name="Path 7" d="M84.361,0H96.143l13.224,39.248c1.186,3.476,2.2,8.816,2.288,8.816h.171c.084,0,1.1-5.34,2.288-8.816L127.423,0h11.7L117.166,60.186h-10.85Z" fill="#fff"/>
        <path id="Path_8" data-name="Path 8" d="M142.843,0h10.68V9.579h-10.68Zm0,16.954h10.764V60.185H142.843Z" fill="#fff"/>
        <path id="Path_9" data-name="Path 9" d="M235.647,15.937c12.461,0,19.157,9.07,19.157,20.514,0,1.271-.254,4.153-.254,4.153H224.712c.678,7.545,6.528,11.445,12.969,11.445,6.951,0,12.462-4.748,12.462-4.748l4.152,7.714A27.007,27.007,0,0,1,236.918,61.2c-14.326,0-23.226-10.343-23.226-22.635,0-13.307,9.07-22.632,21.955-22.632m8.307,17.293c-.17-5.85-3.814-8.986-8.562-8.986-5.509,0-9.325,3.391-10.341,8.986Z" fill="#fff"/>
        <path id="Path_10" data-name="Path 10" d="M282.093,15.937c13.223,0,23.819,9.409,23.819,22.633,0,13.309-10.6,22.634-23.735,22.634-13.223,0-23.819-9.325-23.819-22.634,0-13.224,10.6-22.633,23.735-22.633m.084,36.112c6.95,0,12.8-5.427,12.8-13.479,0-7.969-5.85-13.478-12.8-13.478-7.036,0-12.885,5.509-12.885,13.478,0,8.052,5.849,13.479,12.885,13.479" fill="#fff"/>
        <path id="Path_11" data-name="Path 11" d="M314.129,0h19.412c6.527,0,9.493.509,12.121,1.7,6.018,2.714,9.834,8.478,9.834,16.446,0,7.2-3.816,13.9-10.173,16.444v.17a14.7,14.7,0,0,1,2.034,2.967l12.376,22.464h-12.2L335.575,37.722H325.064V60.186H314.129ZM334.9,28.228c5.85,0,9.495-3.475,9.495-9.494,0-5.764-2.459-9.325-11.02-9.325h-8.307V28.228Z" fill="#fff"/>
        <path id="Path_12" data-name="Path 12" d="M384.563,15.937c12.46,0,19.156,9.07,19.156,20.514,0,1.271-.254,4.153-.254,4.153H373.628c.677,7.545,6.527,11.445,12.968,11.445,6.951,0,12.463-4.748,12.463-4.748l4.151,7.714A27.007,27.007,0,0,1,385.833,61.2c-14.325,0-23.226-10.343-23.226-22.635,0-13.307,9.07-22.632,21.956-22.632M392.87,33.23c-.171-5.85-3.815-8.986-8.563-8.986-5.509,0-9.325,3.391-10.341,8.986Z" fill="#fff"/>
        <path id="Path_13" data-name="Path 13" d="M432.451,33.06h1.441v-.593c0-5.68-3.561-7.629-8.307-7.629-6.189,0-11.869,4.154-11.869,4.154l-4.068-7.714A29.156,29.156,0,0,1,426.6,15.937c11.359,0,17.971,6.273,17.971,17.208V60.186h-9.918V56.627a27.373,27.373,0,0,1,.17-3.053h-.17c.086,0-3.3,7.63-13.139,7.63-7.714,0-14.665-4.832-14.665-13.479,0-13.733,18.565-14.665,25.6-14.665m-8.223,19.751c5.68,0,9.748-6.1,9.748-11.359V40.435h-1.865c-5.51,0-14.41.764-14.41,6.782,0,2.882,2.118,5.594,6.527,5.594" fill="#fff"/>
        <path id="Path_14" data-name="Path 14" d="M470.251,15.937c9.493,0,12.461,5.509,12.461,5.509h.169s-.084-1.1-.084-2.457V0h10.765V60.186H483.39v-3.56a21.875,21.875,0,0,1,.17-2.8h-.17S479.744,61.2,469.826,61.2c-11.7,0-19.157-9.241-19.157-22.635,0-13.732,8.138-22.632,19.582-22.632m2.034,36.2c5.6,0,10.85-4.068,10.85-13.648,0-6.7-3.559-13.309-10.766-13.309-5.932,0-10.85,4.832-10.85,13.393,0,8.223,4.409,13.564,10.766,13.564" fill="#fff"/>
        <path id="Path_15" data-name="Path 15" d="M501.015,67.136a9.42,9.42,0,0,0,4.832,1.781c2.966,0,5.848-1.781,7.459-5.6l1.61-3.814L496.692,16.954h12.121l9.071,24.922a53.3,53.3,0,0,1,1.609,5.848h.171a58.361,58.361,0,0,1,1.441-5.68l8.477-25.09h11.782L522.037,66.713c-3.051,7.882-9.07,11.273-15.6,11.273a16.632,16.632,0,0,1-8.986-2.8Z" fill="#fff"/>
        <path id="Path_16" data-name="Path 16" d="M0,15.828H16.046c8.086,0,13.834,4.169,13.834,11.56a10.616,10.616,0,0,1-5.433,9.6v.126c4.928,1.453,7.265,6,7.265,10.55,0,8.97-7.2,13.013-15.477,13.013H0ZM16.046,34.147c3.537,0,5.558-2.526,5.558-5.749s-1.9-5.559-5.685-5.559H8.149V34.147Zm.82,19.52c4.17,0,6.507-2.716,6.507-6.506a6.085,6.085,0,0,0-6.507-6.444H8.149v12.95Z" fill="#fff"/>
        <path id="Path_17" data-name="Path 17" d="M54.006,27.7c9.286,0,14.277,6.759,14.277,15.287,0,.948-.19,3.1-.19,3.1H45.857c.505,5.622,4.864,8.528,9.665,8.528a15.915,15.915,0,0,0,9.286-3.538l3.1,5.749a20.134,20.134,0,0,1-12.95,4.611c-10.676,0-17.31-7.706-17.31-16.867,0-9.917,6.76-16.866,16.362-16.866M60.2,40.59c-.127-4.359-2.843-6.7-6.381-6.7-4.105,0-6.948,2.527-7.706,6.7Z" fill="#fff"/>
      </g>
    </g>
  </g>
</svg>
